<?xml version="1.0" standalone="no"?>
<!DOCTYPE svg PUBLIC "-//W3C//DTD SVG 20010904//EN"
 "http://www.w3.org/TR/2001/REC-SVG-20010904/DTD/svg10.dtd">
<svg version="1.0" xmlns="http://www.w3.org/2000/svg"
 width="479.000000pt" height="479.000000pt" viewBox="0 0 479.000000 479.000000"
 preserveAspectRatio="xMidYMid meet">
<metadata>
Created by potrace 1.14, written by Peter Selinger 2001-2017
</metadata>
<g transform="translate(0.000000,479.000000) scale(0.100000,-0.100000)"
fill="#000000" stroke="none">
<path d="M2301 4779 c-72 -22 -141 -81 -177 -151 -26 -51 -32 -74 -33 -128 -1
-32 -6 -38 -63 -70 -35 -19 -88 -49 -118 -67 -30 -18 -73 -42 -95 -54 -22 -12
-71 -41 -110 -64 -38 -23 -92 -54 -118 -69 -27 -14 -220 -126 -430 -247 -378
-219 -382 -221 -407 -204 -68 44 -115 59 -190 59 -63 0 -85 -4 -133 -28 -97
-48 -155 -135 -164 -246 -9 -113 37 -213 126 -270 l46 -30 0 -799 0 -800 -40
-29 c-53 -39 -78 -68 -107 -122 -19 -38 -23 -59 -22 -135 0 -78 4 -96 27 -135
33 -57 80 -102 137 -132 64 -33 194 -33 261 0 l46 23 539 -312 c297 -171 557
-322 579 -334 22 -13 82 -47 134 -78 l95 -54 11 -56 c49 -247 357 -330 524
-141 39 45 71 121 71 170 0 17 6 36 13 41 10 9 625 365 1122 651 72 41 144 83
161 93 30 18 31 18 68 -8 50 -33 117 -50 186 -47 235 10 364 290 221 480 -20
27 -59 62 -87 79 l-51 30 0 802 0 801 41 23 c58 32 104 83 133 146 22 49 25
65 21 137 -4 64 -11 91 -32 128 -90 157 -290 203 -438 101 l-49 -34 -207 119
c-114 66 -223 129 -242 140 -61 34 -419 241 -580 335 -85 49 -175 101 -200
115 -25 14 -52 30 -61 35 -12 7 -18 29 -21 71 -7 107 -70 201 -167 248 -50 24
-166 33 -220 17z m15 -579 c93 -24 191 -4 269 54 18 14 24 13 65 -13 25 -15
70 -41 100 -58 30 -17 170 -97 310 -178 140 -81 271 -157 290 -168 19 -10 103
-58 185 -106 83 -48 203 -118 268 -155 112 -65 117 -69 117 -101 0 -18 3 -46
6 -62 6 -29 3 -31 -107 -94 -62 -35 -132 -74 -156 -87 l-43 -23 20 -39 c11
-21 24 -41 29 -45 6 -3 68 28 139 69 182 106 173 103 208 71 16 -15 46 -36 67
-46 l37 -19 0 -804 0 -804 -35 -16 c-49 -24 -115 -92 -138 -146 -11 -25 -23
-74 -26 -110 l-6 -65 -220 -127 c-121 -71 -227 -131 -235 -135 -8 -4 -46 -25
-85 -48 -38 -23 -224 -131 -412 -239 l-342 -197 -51 35 c-29 20 -69 41 -90 47
l-37 11 -1 202 c0 110 -1 207 -1 214 -1 8 -18 12 -51 12 l-50 0 0 -215 0 -215
-27 -6 c-42 -9 -91 -36 -121 -66 -15 -15 -30 -28 -34 -28 -6 0 -207 115 -808
462 -91 53 -183 106 -205 118 -22 12 -97 56 -166 96 l-126 74 6 33 c25 119
-54 266 -170 319 -34 16 -49 29 -50 43 0 11 -1 363 -1 783 l-1 762 62 31 c34
17 67 40 74 50 17 27 29 24 103 -21 36 -22 68 -40 70 -40 2 0 37 -20 77 -45
41 -25 78 -45 83 -45 9 0 58 79 52 85 -2 1 -50 30 -108 64 -58 34 -112 65
-120 71 -8 5 -30 17 -48 26 -31 16 -32 18 -26 63 4 25 7 57 8 70 1 20 17 34
81 71 44 26 141 82 215 125 280 162 543 313 774 446 l239 138 39 -32 c23 -19
64 -37 104 -47z"/>
<path d="M2340 3847 c0 -188 -3 -244 -12 -244 -7 0 -71 -34 -143 -75 -71 -41
-186 -107 -255 -147 -69 -39 -132 -75 -140 -81 -8 -5 -48 -28 -88 -50 l-73
-41 26 -42 c14 -23 31 -41 38 -39 6 2 152 84 323 183 171 98 314 179 318 179
3 0 6 -164 6 -364 0 -238 4 -366 10 -368 6 -2 29 -2 53 0 l42 4 -1 358 -1 359
41 -24 c23 -13 169 -98 326 -188 l285 -165 22 40 c13 22 23 43 23 47 0 6 -488
293 -650 382 l-47 26 0 224 c-1 123 -2 234 -2 247 -1 20 -6 22 -51 22 l-50 0
0 -243z"/>
<path d="M1350 3206 c-101 -25 -151 -83 -158 -183 -5 -77 12 -117 70 -167 96
-82 244 -51 306 64 43 81 16 197 -59 251 -49 35 -107 48 -159 35z"/>
<path d="M3281 3188 c-25 -13 -59 -40 -75 -61 -29 -36 -31 -45 -31 -117 0 -72
2 -81 31 -117 44 -54 98 -83 160 -83 150 0 250 159 182 290 -50 98 -171 137
-267 88z"/>
<path d="M1348 2692 c-17 -3 -18 -28 -17 -335 0 -471 0 -477 -10 -477 -9 0
-419 -236 -434 -250 -6 -5 17 -58 39 -89 2 -1 104 55 229 127 l226 130 302
-175 c363 -210 386 -223 395 -223 8 0 55 80 50 85 -2 2 -125 74 -369 214 -25
14 -95 55 -157 91 -62 35 -112 67 -112 70 0 3 37 26 83 51 209 116 547 314
547 321 0 5 -11 26 -25 48 l-24 39 -73 -43 c-109 -65 -387 -226 -438 -254 -25
-14 -62 -36 -82 -48 -20 -13 -39 -20 -41 -16 -2 4 -3 170 -3 370 1 235 -2 362
-9 363 -48 4 -62 4 -77 1z"/>
<path d="M3335 2691 c-20 -6 -20 -14 -20 -364 0 -198 -2 -360 -5 -362 -3 -2
-37 15 -75 37 -343 199 -556 319 -562 314 -17 -10 -46 -77 -37 -85 8 -8 288
-172 349 -205 121 -65 274 -161 268 -167 -4 -4 -145 -86 -312 -183 -167 -97
-306 -178 -310 -181 -7 -7 30 -76 44 -81 10 -4 83 36 534 297 84 49 157 89
161 89 4 0 104 -56 223 -125 118 -69 220 -125 224 -125 10 0 58 79 52 84 -2 2
-103 61 -224 131 -121 70 -222 129 -224 131 -2 2 -4 181 -4 399 0 280 -3 395
-11 396 -6 0 -20 2 -31 3 -11 1 -29 0 -40 -3z"/>
<path d="M2330 2624 c-161 -48 -190 -274 -47 -358 111 -65 245 -24 292 89 67
160 -78 319 -245 269z"/>
<path d="M2338 1501 c-85 -27 -136 -89 -145 -175 -16 -158 147 -272 288 -201
145 73 146 286 1 359 -40 21 -107 28 -144 17z"/>
</g>
</svg>
